# xmcd
#
# Track frame offsets:
#	150
#	11100
#	22531
#	35045
#	43894
#	62810
#	76197
#	86957
#	99249
#	111284
#	122863
#	134767
#	144615
#	157462
#	168464
#	179576
#	192466
#	204987
#	215558
#	228990
#	240126
#	252697
#	263828
#	277255
#
# Disc length: 3865 seconds
# Revision: 0
# Processed by: cddbd v1.5.2PL0 Copyright (c) Steve Scherf et al.
# Submitted via: dBpowerAMP V12.0
#
DISCID=6e0f1718
DTITLE=Various Artist - Blue Beat - The Singles - Vol 2 Disc 3
DYEAR=2013
DGENRE=R&B
TTITLE0=The Blues Busters - There's Always Sunshine
TTITLE1=The Blues Busters - You Had It All Wrong
TTITLE2=Eric 'Humpty Dumpty' Morris - My Forty Five
TTITLE3=Eric 'Humpty Dumpty' Morris - I've Tried Everybody
TTITLE4=Owen Grey With The Jets - Rocking In My Feet
TTITLE5=Owen Grey With The Jets - Nobody Else
TTITLE6=Derrick Morgan - Sunday, Monday
TTITLE7=Derrick Morgan - Be Still
TTITLE8=Bobby Kingdom With The Blue Beats - Spanish Town Twist
TTITLE9=Bobby Kingdom With The Blue Beats - Brand New Automobile
TTITLE10=Jimmy Cliff and Cavaliers Combo - I'm SOrry
TTITLE11=The Blue Beats - Roarin'
TTITLE12=Girl Satchmo and The Blue Beats - Twist Around The Town
TTITLE13=Girl Satchmo and The Blue Beats - My New Honey
TTITLE14=Winston and Roy With Count Ossie - Babylon Gone
TTITLE15=Count Ossie Ft Reco and Gaynair - First Gone
TTITLE16=Eric Morris and Buster's Group - Sinner's Repent And Pray
TTITLE17=Eric Morris and Buster's Group - Now And Forever
TTITLE18=Derrick Morgan With Buster's Group - Don't You Know Little Girl
TTITLE19=B Gabbidon and Buster's Group - Hully Gully Miss Molly
TTITLE20=Eric Morris and Buster's Group - Money Can't Buy Life
TTITLE21=A Ellis WIth Buster's Group - True Love
TTITLE22=Laurel Aitken and The Blue Beats - Back To New Orleans
TTITLE23=Laurel Aitken and The Blue Beats - Brother David
EXTD=
EXTT0=
EXTT1=
EXTT2=
EXTT3=
EXTT4=
EXTT5=
EXTT6=
EXTT7=
EXTT8=
EXTT9=
EXTT10=
EXTT11=
EXTT12=
EXTT13=
EXTT14=
EXTT15=
EXTT16=
EXTT17=
EXTT18=
EXTT19=
EXTT20=
EXTT21=
EXTT22=
EXTT23=
PLAYORDER=
